<?xml version="1.0" standalone="no"?>
<!DOCTYPE svg PUBLIC "-//W3C//DTD SVG 20010904//EN"
 "http://www.w3.org/TR/2001/REC-SVG-20010904/DTD/svg10.dtd">
<svg version="1.0" xmlns="http://www.w3.org/2000/svg"
 width="700.000000pt" height="700.000000pt" viewBox="0 0 700.000000 700.000000"
 preserveAspectRatio="xMidYMid meet">
<metadata>
Created by potrace 1.14, written by Peter Selinger 2001-2017
</metadata>
<g transform="translate(0.000000,700.000000) scale(0.100000,-0.100000)"
fill="#000000" stroke="none">
<path d="M4909 4826 c-2 -2 -29 -6 -59 -10 -129 -14 -245 -47 -380 -110 -43
-19 -145 -80 -148 -88 -2 -5 -8 -8 -14 -8 -33 0 -258 -215 -313 -297 -15 -24
-33 -43 -39 -44 -6 0 -98 -2 -204 -4 -106 -1 -195 -5 -198 -8 -3 -3 -5 -55 -5
-116 l1 -111 -222 -1 c-123 -1 -320 -2 -438 -4 -118 -1 -476 -6 -795 -10 -671
-9 -916 -12 -931 -14 -6 0 -35 -24 -65 -52 -75 -72 -218 -207 -406 -387 l-160
-152 2 -56 1 -57 120 -83 c283 -196 347 -241 361 -254 7 -5 15 -10 19 -10 4 0
17 -8 28 -18 55 -49 177 -123 203 -124 15 0 114 0 218 1 l191 1 133 155 c74
86 137 158 142 161 5 3 64 -48 130 -113 67 -65 139 -135 161 -155 l39 -38 104
0 105 0 70 105 c39 58 72 105 74 105 2 0 50 -46 105 -102 l101 -101 273 3
c149 1 306 3 347 4 74 2 115 -7 105 -24 -5 -8 23 -161 31 -169 2 -3 91 -4 197
-2 l193 2 31 -43 c42 -58 174 -188 248 -243 136 -102 323 -185 492 -220 104
-22 130 -24 253 -25 133 -1 171 3 295 31 127 28 330 116 416 181 24 18 56 41
71 51 72 46 250 247 307 347 131 230 174 402 174 700 0 236 -7 326 -33 435
-57 236 -165 430 -335 600 -142 142 -314 249 -502 310 -78 26 -89 28 -183 46
-55 10 -303 22 -311 15z m761 -1018 c89 -23 152 -59 220 -127 60 -60 114 -170
107 -216 -9 -57 -59 -145 -112 -199 -218 -220 -584 -160 -716 119 -34 70 -35
89 -12 147 69 176 242 291 428 283 39 -2 77 -5 85 -7z"/>
</g>
</svg>
